<svg width="17" height="17" viewBox="0 0 17 17" fill="none" xmlns="http://www.w3.org/2000/svg">
<path d="M6.99777 12.8364C7.19511 13.0339 7.42943 13.1905 7.68733 13.2974C7.94524 13.4043 8.22168 13.4593 8.50085 13.4593C8.78002 13.4593 9.05646 13.4043 9.31437 13.2974C9.57227 13.1905 9.80659 13.0339 10.0039 12.8364L12.2784 10.562C12.4003 10.4271 12.4657 10.2505 12.4611 10.0687C12.4564 9.88694 12.382 9.71393 12.2533 9.58549C12.1246 9.45706 11.9514 9.38304 11.7697 9.37875C11.5879 9.37447 11.4114 9.44026 11.2768 9.56249L9.20422 11.6358L9.20918 0.708333C9.20918 0.520471 9.13455 0.340304 9.00172 0.207466C8.86888 0.0746277 8.68871 0 8.50085 0C8.31299 0 8.13282 0.0746277 7.99998 0.207466C7.86714 0.340304 7.79252 0.520471 7.79252 0.708333L7.78614 11.6223L5.72489 9.56249C5.59198 9.42968 5.41175 9.3551 5.22385 9.35516C5.03595 9.35523 4.85577 9.42994 4.72296 9.56285C4.59014 9.69576 4.51556 9.87599 4.51563 10.0639C4.51569 10.2518 4.5904 10.432 4.72331 10.5648L6.99777 12.8364Z" fill="white"/>
<path d="M16.2917 11.3335C16.1038 11.3335 15.9236 11.4081 15.7908 11.541C15.6579 11.6738 15.5833 11.854 15.5833 12.0418V14.8752C15.5833 15.063 15.5087 15.2432 15.3759 15.376C15.243 15.5089 15.0629 15.5835 14.875 15.5835H2.125C1.93714 15.5835 1.75697 15.5089 1.62413 15.376C1.49129 15.2432 1.41667 15.063 1.41667 14.8752V12.0418C1.41667 11.854 1.34204 11.6738 1.2092 11.541C1.07636 11.4081 0.896194 11.3335 0.708333 11.3335C0.520471 11.3335 0.340304 11.4081 0.207466 11.541C0.0746277 11.6738 0 11.854 0 12.0418L0 14.8752C0 15.4387 0.223883 15.9792 0.622398 16.3778C1.02091 16.7763 1.56141 17.0002 2.125 17.0002H14.875C15.4386 17.0002 15.9791 16.7763 16.3776 16.3778C16.7761 15.9792 17 15.4387 17 14.8752V12.0418C17 11.854 16.9254 11.6738 16.7925 11.541C16.6597 11.4081 16.4795 11.3335 16.2917 11.3335Z" fill="white"/>
</svg>
