<svg width="37" height="37" viewBox="0 0 37 37" fill="none" xmlns="http://www.w3.org/2000/svg">
<path d="M18.5001 7.33496C12.3437 7.33496 7.33508 12.3435 7.33508 18.5C7.33508 24.6564 12.3437 29.6649 18.5001 29.6649C24.6564 29.6649 29.6651 24.6564 29.6651 18.5C29.6651 12.3435 24.6565 7.33496 18.5001 7.33496ZM21.3164 21.2647C20.9974 22.0808 20.3707 22.6819 19.5825 22.9705V24.4824H17.4145V23.0269C16.7877 22.8667 16.1584 22.5612 15.4907 22.0962L16.7297 20.3172C17.416 20.7951 17.9433 20.9978 18.4913 20.9938C19.0373 20.9901 19.2368 20.6301 19.2972 20.4755C19.3537 20.3308 19.3453 20.1547 19.2739 19.9924C19.2104 19.8478 19.0692 19.6503 18.7578 19.5296C17.7581 19.1421 17.1108 18.8681 16.5526 18.3306C15.9004 17.7028 15.608 16.7745 15.7895 15.9079C15.9726 15.0334 16.5866 14.3037 17.4145 13.9564V12.5175H19.5825V13.8795C20.2495 14.0884 20.8321 14.4814 21.2569 14.9062L19.7241 16.4393C19.453 16.1682 18.8476 15.7578 18.2984 15.9377C18.077 16.0103 17.9426 16.2034 17.9115 16.3523C17.8882 16.4634 17.9235 16.6412 18.0562 16.7688C18.3128 17.0159 18.7253 17.192 19.5413 17.5082C20.3253 17.8121 20.9352 18.3844 21.2585 19.1198C21.56 19.8056 21.5811 20.5873 21.3164 21.2647Z" fill="#FF6500"/>
<path d="M2.16797 18.52C2.16263 14.1576 3.85638 10.0542 6.93727 6.96574C10.0182 3.87719 14.1402 2.17426 18.4999 2.16797C22.6024 2.16292 26.514 3.70267 29.5142 6.44211L27.4218 6.44471L27.4245 8.61267L33.1335 8.60559L33.1264 2.89663L30.9585 2.8993L30.9609 4.82763C27.5645 1.7333 23.1402 -0.00569495 18.4999 1.40122e-05C13.5581 0.00637336 8.89227 1.93615 5.40235 5.43466C1.91252 8.93317 -0.00605593 13.5812 1.43606e-05 18.5227C0.00355536 21.3973 0.648523 24.1517 1.91692 26.7092L3.85913 25.746C2.7401 23.4896 2.17115 21.0584 2.16797 18.52Z" fill="#FF6500"/>
<path d="M34.832 18.4797C34.8373 22.8421 33.1436 26.9455 30.0627 30.034C26.9818 33.1225 22.8598 34.8255 18.5 34.8318C14.3975 34.8368 10.486 33.2971 7.48578 30.5576L9.57815 30.555L9.57548 28.3871L3.86652 28.3941L3.87353 34.1031L6.04149 34.1004L6.0391 32.1721C9.43543 35.2664 13.8597 37.0054 18.5 36.9997C23.4418 36.9934 28.1077 35.0636 31.5976 31.5651C35.0875 28.0666 37.006 23.4185 37 18.477C36.9964 15.6025 36.3514 12.8481 35.083 10.2905L33.1408 11.2538C34.2599 13.5101 34.8288 15.9413 34.832 18.4797Z" fill="#FF6500"/>
</svg>
