<svg width="116" height="32" viewBox="0 0 116 32" fill="none" xmlns="http://www.w3.org/2000/svg">
<path d="M34.2763 4.73212V20.6557C34.2763 23.2667 32.1717 25.3878 29.5698 25.3878H23.3515L17.1381 31.64L10.9248 25.3878H4.70646C2.10962 25.3878 0 23.2717 0 20.6557V4.73212C0.0050229 2.12112 2.10962 0 4.71148 0H29.5698C32.1666 0 34.2763 2.12112 34.2763 4.73212Z" fill="#F2C900"/>
<path d="M17.0515 21.0646C16.8456 21.0646 16.6497 20.9838 16.5041 20.8373L9.95419 14.2517C8.10576 12.3932 8.10576 9.36811 9.95419 7.5096C11.8026 5.6511 14.8113 5.6511 16.6598 7.5096L17.0515 7.90352L17.4433 7.5096C19.2918 5.6511 22.3005 5.6511 24.1489 7.5096C25.9973 9.36811 25.9973 12.3932 24.1489 14.2517L17.599 20.8373C17.4534 20.9838 17.2575 21.0646 17.0515 21.0646Z" fill="white"/>
<path d="M75.1381 4.73212V20.6557C75.1381 23.2667 73.0335 25.3878 70.4316 25.3878H64.2133L57.9999 31.64L51.7866 25.3878H45.5683C42.9714 25.3878 40.8618 23.2717 40.8618 20.6557V4.73212C40.8668 2.12112 42.9714 0 45.5733 0H70.4316C73.0285 0 75.1381 2.12112 75.1381 4.73212Z" fill="#6BC661"/>
<path d="M57.9134 21.0646C57.7074 21.0646 57.5115 20.9838 57.3659 20.8373L50.816 14.2517C48.9676 12.3932 48.9676 9.36811 50.816 7.5096C52.6644 5.6511 55.6732 5.6511 57.5216 7.5096L57.9134 7.90352L58.3052 7.5096C60.1536 5.6511 63.1623 5.6511 65.0107 7.5096C66.8591 9.36811 66.8591 12.3932 65.0107 14.2517L58.4609 20.8373C58.3152 20.9838 58.1193 21.0646 57.9134 21.0646Z" fill="white"/>
<path d="M116 4.73212V20.6557C116 23.2667 113.895 25.3878 111.294 25.3878H105.075L98.8619 31.64L92.6486 25.3878H86.4302C83.8334 25.3878 81.7238 23.2717 81.7238 20.6557V4.73212C81.7288 2.12112 83.8334 0 86.4352 0H111.294C113.89 0 116 2.12112 116 4.73212Z" fill="#4572BA"/>
<path d="M98.7752 21.0646C98.5692 21.0646 98.3733 20.9838 98.2277 20.8373L91.6778 14.2517C89.8294 12.3932 89.8294 9.36811 91.6778 7.5096C93.5263 5.6511 96.535 5.6511 98.3834 7.5096L98.7752 7.90352L99.167 7.5096C101.015 5.6511 104.024 5.6511 105.873 7.5096C107.721 9.36811 107.721 12.3932 105.873 14.2517L99.3227 20.8373C99.177 20.9838 98.9811 21.0646 98.7752 21.0646Z" fill="white"/>
</svg>
