<svg width="38" height="34" viewBox="0 0 38 34" fill="none" xmlns="http://www.w3.org/2000/svg">
<path d="M1.09478 32.8434H3.28434C3.88896 32.8434 4.37913 32.3533 4.37913 31.7486V19.7061H1.09478C0.49017 19.7061 0 20.1962 0 20.8008V31.7486C0 32.3532 0.49017 32.8434 1.09478 32.8434Z" fill="#FF6500"/>
<path d="M28.6103 0C23.7732 0 19.8521 3.92114 19.8521 8.75825C19.8521 13.5952 23.7732 17.5165 28.6103 17.5165C33.4474 17.5165 37.3686 13.5952 37.3686 8.75825C37.3686 3.92114 33.4474 0 28.6103 0ZM30.445 12.6984C30.2079 12.817 29.9593 12.9103 29.7049 12.981V13.2835C29.7049 13.8881 29.2148 14.3783 28.6102 14.3783C28.0055 14.3783 27.5154 13.8881 27.5154 13.2835V13.0152C27.0597 12.9005 26.6347 12.7076 26.2746 12.4376C25.7909 12.0749 25.6929 11.3886 26.0557 10.9049C26.4185 10.4213 27.1047 10.3231 27.5884 10.6859C28.0263 11.0144 28.8685 11.0388 29.4658 10.7401C29.7058 10.62 29.8354 10.4755 29.8354 10.4006C29.8354 10.2696 29.8354 10.2493 29.6897 10.1716C29.404 10.0191 28.899 9.92543 28.4105 9.83486C27.7583 9.71385 27.084 9.58875 26.4997 9.27689C25.6464 8.82146 25.1954 8.0743 25.1954 7.11622C25.1954 6.15705 25.7706 5.31932 26.7735 4.81791C27.0112 4.69902 27.2604 4.60494 27.5154 4.53422V4.2333C27.5154 3.62869 28.0055 3.13852 28.6102 3.13852C29.2148 3.13852 29.7049 3.62869 29.7049 4.2333V4.50138C30.1607 4.61618 30.5857 4.80923 30.9457 5.0792C31.4294 5.44201 31.5275 6.12822 31.1646 6.61189C30.8018 7.09557 30.1158 7.19366 29.6319 6.83085C29.1934 6.50191 28.3504 6.47753 27.7526 6.77626C27.5112 6.89698 27.3849 7.03864 27.3849 7.11615C27.3849 7.24723 27.3849 7.26738 27.5306 7.34518C27.8163 7.49765 28.3214 7.59136 28.8098 7.68193C29.462 7.80294 30.1363 7.92804 30.7207 8.23991C31.5739 8.69534 32.0249 9.44249 32.0249 10.4006C32.025 11.3588 31.4491 12.1964 30.445 12.6984Z" fill="#FF6500"/>
<path d="M19.7645 33.4272H20.0054C23.6838 33.3834 27.2089 32.3398 30.3183 30.4567L36.4271 26.1871C37.4561 25.4645 37.6532 24.107 36.9745 23.1436C36.2738 22.1363 34.9163 21.8956 33.931 22.5962L28.0629 26.7126C26.1799 27.8074 23.881 28.0482 21.8008 27.3475L15.0496 25.1141C14.4804 24.939 14.1737 24.3039 14.3709 23.7348C14.546 23.1874 15.1153 22.8809 15.6845 23.0341C15.7064 23.0341 23.2677 25.4864 23.2677 25.4864C24.541 25.8681 25.6723 25.1476 26.0266 24.0851C26.3987 22.9246 25.7638 21.6984 24.6253 21.3263L14.327 17.9543C12.0745 17.1343 9.03915 17.3037 6.56866 18.6852V30.9411L15.159 32.8872C16.7327 33.2333 18.2768 33.4272 19.7645 33.4272Z" fill="#FF6500"/>
</svg>
