<svg width="75" height="69" viewBox="0 0 75 69" fill="none" xmlns="http://www.w3.org/2000/svg">
<path d="M74.01 10.2177V44.6001C74.01 50.2379 69.4657 54.8178 63.8477 54.8178H50.4209L37.005 68.3178L23.5891 54.8178H10.1623C4.55513 54.8178 0 50.2488 0 44.6001V10.2177C0.0108455 4.57996 4.55513 0 10.1731 0H63.8477C69.4549 0 74.01 4.57996 74.01 10.2177Z" fill="#FF6500"/>
<path d="M24.2243 18.1873C24.2243 15.9659 26.0171 14.1631 28.2275 14.1631C30.4372 14.1631 32.23 15.9652 32.23 18.1873C32.23 20.4106 30.4372 22.2128 28.2275 22.2128C26.0171 22.2121 24.2243 20.4106 24.2243 18.1873ZM42.3757 18.1873C42.3757 15.9659 44.1704 14.1631 46.3801 14.1631C48.5899 14.1631 50.3833 15.9652 50.3833 18.1873C50.3833 20.4106 48.5906 22.2128 46.3801 22.2128C44.171 22.2121 42.3757 20.4106 42.3757 18.1873ZM51.8403 34.6695C49.3594 40.4368 43.5493 44.1631 37.0382 44.1631C30.3882 44.1631 24.5439 40.418 22.1488 34.6215C21.7383 33.6286 22.2063 32.489 23.1946 32.0763C23.4374 31.9757 23.6892 31.9276 23.937 31.9276C24.6962 31.9276 25.4167 32.3793 25.7259 33.1289C27.5186 37.4671 31.9588 40.27 37.0382 40.27C42.0026 40.27 46.4169 37.4652 48.2846 33.1237C48.7093 32.1366 49.8494 31.6817 50.83 32.11C51.8132 32.5364 52.2651 33.6824 51.8403 34.6695Z" fill="white"/>
</svg>
