<svg width="31" height="36" viewBox="0 0 31 36" fill="none" xmlns="http://www.w3.org/2000/svg">
<path d="M29.6584 4.28084L15.5375 0.0445078C15.3398 -0.0148359 15.1291 -0.0148359 14.9313 0.0445078L0.810164 4.28084C0.364101 4.41464 0.0585938 4.82527 0.0585938 5.29102V20.8242C0.0585938 22.8445 0.876539 24.9127 2.48958 26.9712C3.72152 28.5434 5.42597 30.1222 7.55538 31.6636C11.1327 34.2531 14.6553 35.8416 14.8035 35.9079C14.9405 35.9693 15.0875 36 15.2344 36C15.3814 36 15.5283 35.9693 15.6654 35.9079C15.8135 35.8416 19.336 34.2531 22.9133 31.6636C25.0427 30.1222 26.7471 28.5434 27.9791 26.9712C29.5922 24.9128 30.41 22.8446 30.41 20.8242V5.29102C30.41 4.82527 30.1046 4.41464 29.6584 4.28084Z" fill="#FF6500"/>
</svg>
