<svg width="36" height="36" viewBox="0 0 36 36" fill="none" xmlns="http://www.w3.org/2000/svg">
<path d="M18 8.4375C20.33 8.4375 22.2188 6.5487 22.2188 4.21875C22.2188 1.8888 20.33 0 18 0C15.67 0 13.7812 1.8888 13.7812 4.21875C13.7812 6.5487 15.67 8.4375 18 8.4375Z" fill="#FF6500"/>
<path d="M25.3828 15.8906C25.3828 11.8202 22.0705 8.4375 18 8.4375C13.9295 8.4375 10.6172 11.8202 10.6172 15.8906V19.0547H25.3828V15.8906Z" fill="#FF6500"/>
<path d="M31.6147 16.0327C31.0321 25.1534 27.12 27.2755 26.9092 27.3809L25.9472 25.5033C25.9815 25.4845 28.1597 24.1737 29.1328 19.0935C24.1295 19.5105 20.0343 23.4193 19.4337 28.5128C19.1824 30.6521 19.0553 32.8627 19.0553 34.9452L19.0547 36H27.4922V34.9453C27.4922 33.9298 28.2461 33.2294 29.6911 31.978C32.1754 29.8274 36 26.5055 36 18V12.7266C36 12.7266 34.9216 12.7266 34.9098 12.7267C33.1613 12.7385 31.7263 14.2877 31.6147 16.0327Z" fill="#FF6500"/>
<path d="M6.30886 31.978C7.75385 33.2294 8.50781 33.9298 8.50781 34.9453V36H16.9453V34.9453C16.9453 32.8627 16.8176 30.6521 16.5663 28.5129C15.9656 23.4193 11.8705 19.5106 6.86714 19.0936C7.8402 24.1738 10.0185 25.4846 10.0527 25.5033L9.0907 27.381C8.87998 27.2755 4.96786 25.1534 4.38518 16.0328C4.27366 14.2878 2.83866 12.7386 1.0902 12.7267C1.07838 12.7266 0 12.7266 0 12.7266V18C0 26.5055 3.82458 29.8274 6.30886 31.978Z" fill="#FF6500"/>
</svg>
