<svg width="16" height="16" viewBox="0 0 16 16" fill="none" xmlns="http://www.w3.org/2000/svg">
<path d="M13.3436 0H2.65635C2.58102 0.0150633 2.50568 0.0305843 2.43035 0.0456476C1.00718 0.33095 0.00223553 1.54793 0.00132237 2.99863C-0.00096055 6.33141 -4.73831e-05 9.66419 0.00223553 12.997C0.00223553 13.1832 0.0118238 13.3727 0.0456109 13.5557C0.302211 14.9566 1.54366 15.9961 2.97048 15.9974C6.32409 16.0011 9.67769 16.0006 13.0313 15.9974C14.2915 15.9961 15.4261 15.1826 15.8379 13.9894C15.9101 13.7798 15.9466 13.5584 16 13.3425V2.65582C15.99 2.6266 15.9753 2.5983 15.9703 2.56863C15.7831 1.39912 15.1124 0.618078 14.0308 0.179399C13.8134 0.0912971 13.5733 0.0584297 13.3436 0ZM7.26328 8.00214C7.26054 9.23464 6.29624 10.1983 5.06437 10.2001C3.83434 10.2015 2.86867 9.23875 2.86273 8.00488C2.85679 6.77146 3.83662 5.79185 5.0694 5.79915C6.30354 5.80646 7.26602 6.77283 7.26328 8.00214ZM13.1381 8.0067C13.1299 9.24149 12.1633 10.2038 10.9342 10.1996C9.70235 10.196 8.73622 9.22916 8.73576 7.99986C8.73485 6.76598 9.7197 5.78637 10.9488 5.79915C12.1866 5.81148 13.1464 6.77922 13.1381 8.0067Z" fill="#FF6500"/>
</svg>
