<svg width="38" height="33" viewBox="0 0 38 33" fill="none" xmlns="http://www.w3.org/2000/svg">
<path d="M15.6229 17.2998H22.1104V19.4623H15.6229V17.2998Z" fill="white"/>
<path d="M30.3553 19.4631H24.2729V20.5443C24.2729 21.1418 23.7892 21.6256 23.1917 21.6256H14.5417C13.9442 21.6256 13.4604 21.1418 13.4604 20.5443V19.4631H7.37811C5.98008 19.4631 4.74368 18.5719 4.30105 17.2457L0.41333 5.58057V29.1944C0.41333 30.9829 1.86851 32.4381 3.65708 32.4381H34.0763C35.8648 32.4381 37.32 30.9829 37.32 29.1944V5.58141L33.432 17.2457C32.9897 18.5719 31.7533 19.4631 30.3553 19.4631Z" fill="white"/>
<path d="M23.1917 0H14.5417C12.7531 0 11.2979 1.45518 11.2979 3.24375V4.325H2.27368L6.35174 16.5609C6.49957 17.0032 6.91236 17.3 7.37809 17.3H13.4604V16.2188C13.4604 15.6213 13.9442 15.1375 14.5417 15.1375H23.1917C23.7892 15.1375 24.2729 15.6213 24.2729 16.2188V17.3H30.3552C30.821 17.3 31.2337 17.0032 31.3816 16.5609L35.4599 4.325H26.4354V3.24375C26.4354 1.45518 24.9802 0 23.1917 0ZM13.4604 4.325V3.24375C13.4604 2.64709 13.945 2.1625 14.5417 2.1625H23.1917C23.7883 2.1625 24.2729 2.64709 24.2729 3.24375V4.325H13.4604Z" fill="white"/>
</svg>
