<svg width="17" height="15" viewBox="0 0 17 15" fill="none" xmlns="http://www.w3.org/2000/svg">
<path d="M0.000415761 5.33588V5.03244C0.216196 4.65474 0.381253 4.59144 0.80616 4.72226C0.929641 4.76024 1.05437 4.79485 1.15041 4.82312C1.04896 4.45723 0.917168 4.0981 0.853141 3.72672C0.695984 2.816 0.863119 1.96268 1.39654 1.20305C1.47304 1.09417 1.60816 1.00048 1.73497 0.960388C1.97278 0.885269 2.15406 1.00892 2.31953 1.26129C2.62844 1.73184 2.9149 2.22433 3.27287 2.65395C4.53221 4.16393 6.14993 5.00797 8.08696 5.23164C8.10484 4.90584 8.09736 4.58384 8.14475 4.27028C8.28819 3.32116 8.66861 2.48683 9.33799 1.79092C10.3978 0.689031 12.0841 0.370829 13.4482 1.03635C13.5471 1.08488 13.6228 1.08953 13.7238 1.03846C14.3604 0.715196 14.9986 0.394884 15.6422 0.0863881C15.7652 0.0273055 15.922 -0.0161624 16.0513 0.00578257C16.4047 0.0665532 16.5568 0.426113 16.3914 0.7747C16.1635 1.25454 15.9265 1.72931 15.6941 2.20661C15.6709 2.25472 15.6505 2.30452 15.616 2.38217C15.8692 2.3598 16.0941 2.34799 16.3169 2.31844C16.561 2.28595 16.7743 2.3311 16.9156 2.54802C17.0545 2.76114 17.0075 2.97257 16.8791 3.1781C16.6832 3.49039 16.5082 3.81745 16.2953 4.11666C16.1519 4.31839 16.1407 4.51505 16.1739 4.74463C16.3124 5.70008 16.3169 6.65764 16.1548 7.61056C15.8933 9.14966 15.2667 10.5237 14.3076 11.743C13.728 12.4798 13.0811 13.1436 12.2866 13.6458C10.9304 14.5038 9.43153 14.8693 7.85622 14.9727C6.87585 15.0372 5.90048 14.9853 4.92926 14.8389C3.82292 14.6722 2.74361 14.4042 1.71127 13.9607C1.28803 13.7788 0.877255 13.569 0.544231 13.2382C0.468562 13.1631 0.400378 13.0613 0.37169 12.9596C0.274818 12.6182 0.52178 12.3135 0.891391 12.314C1.58779 12.3144 2.28419 12.3367 2.97518 12.2118C3.6932 12.0818 4.3501 11.8147 4.94049 11.3429C4.8856 11.3243 4.84528 11.3112 4.80495 11.2973C4.41372 11.1623 4.01542 11.0454 3.63292 10.888C2.90409 10.5883 2.2422 10.1747 1.69506 9.59404C1.60525 9.49867 1.52626 9.36446 1.50339 9.23701C1.45599 8.9703 1.6198 8.75507 1.8913 8.67531C2.05469 8.6272 2.21933 8.58457 2.39437 8.53646C2.11206 8.34698 1.84431 8.18788 1.59943 7.99881C0.983274 7.52278 0.529679 6.91549 0.258187 6.17738C0.157158 5.90265 0.085231 5.61694 0 5.33588H0.000415761Z" fill="#FF6500"/>
</svg>
