<svg width="32" height="32" viewBox="0 0 32 32" fill="none" xmlns="http://www.w3.org/2000/svg">
<path d="M32 14.8648V17.1787C31.9123 17.2218 31.9436 17.2978 31.9475 17.3668C31.9233 17.4553 31.8833 17.5423 31.8778 17.6316C31.841 18.2154 31.747 18.7905 31.6233 19.3602C31.2873 20.9046 30.7375 22.3683 29.97 23.7521C29.4147 24.7535 28.7497 25.6695 28.0034 26.5393C27.2836 27.3777 26.4769 28.115 25.6036 28.7779C24.4727 29.636 23.2423 30.3279 21.9195 30.8528C20.6405 31.3598 19.3256 31.7101 17.9589 31.8887C17.7028 31.9224 17.4263 31.8582 17.1851 32H14.747C14.7227 31.9397 14.6695 31.9412 14.6178 31.9381C14.0249 31.9028 13.443 31.8072 12.8579 31.6952C10.9767 31.3347 9.24113 30.6178 7.61992 29.6164C7.31526 29.4283 7.06228 29.3813 6.72003 29.4941C4.95314 30.0748 3.17764 30.628 1.40761 31.2C1.29405 31.2368 1.19537 31.2705 1.07476 31.2282C1.10687 31.1208 1.13585 31.0143 1.17031 30.9093C1.75927 29.1376 2.34588 27.3652 2.94424 25.5959C3.00142 25.4282 2.99593 25.3122 2.89255 25.1688C2.33962 24.3986 1.85404 23.5813 1.46322 22.7225C0.928299 21.5448 0.499108 20.3248 0.287645 19.0358C0.16625 18.2875 -0.00135391 17.5431 0.000995674 16.7814C0.00334526 16.0558 -0.0146682 15.331 0.0409386 14.6031C0.0926295 13.9237 0.180347 13.2483 0.33307 12.5956C0.659663 11.1961 1.1241 9.83975 1.81096 8.56252C2.41167 7.44515 3.11263 6.40064 3.94673 5.45252C4.6845 4.6141 5.49746 3.84698 6.39813 3.17937C7.69667 2.21714 9.09154 1.43905 10.625 0.913276C11.6526 0.561451 12.6927 0.286417 13.7743 0.148508C14.5763 0.0458599 15.3822 -0.0176096 16.1826 0.00433044C16.6705 0.0176512 17.1679 0.0309719 17.6613 0.08974C18.5055 0.190821 19.3397 0.327163 20.1589 0.546564C21.3681 0.870963 22.5343 1.31682 23.6292 1.92565C24.6795 2.5102 25.6546 3.20053 26.5631 3.99821C27.5334 4.84995 28.3707 5.80826 29.1163 6.85355C29.8415 7.86984 30.4313 8.96371 30.8745 10.1289C31.274 11.1789 31.6092 12.2516 31.7541 13.3737C31.8073 13.7882 31.8817 14.2003 31.9467 14.6133C31.9499 14.6995 31.8998 14.7974 31.9992 14.864L32 14.8648ZM10.0729 7.36366C9.42283 7.27825 8.84405 7.48981 8.34751 7.86906C7.73035 8.34077 7.34737 9.00603 7.05993 9.7183C6.7122 10.5802 6.60803 11.4727 6.74196 12.3973C6.87588 13.3235 7.15313 14.1941 7.60347 15.0176C7.96452 15.6782 8.38588 16.2956 8.81507 16.9123C9.54736 17.9654 10.3752 18.9386 11.2367 19.8844C11.7818 20.4822 12.4162 20.9837 13.0388 21.4985C14.2943 22.536 15.6884 23.3384 17.2015 23.9276C17.9667 24.2254 18.7413 24.502 19.5401 24.7096C20.1463 24.8679 20.7596 25.0301 21.3799 24.9831C22.1874 24.9212 22.9611 24.6752 23.6598 24.2473C24.2996 23.854 24.9418 23.4332 25.2308 22.7037C25.447 22.1575 25.5731 21.5746 25.6271 20.9814C25.6718 20.4979 25.4799 20.1908 25.0311 19.998C24.4805 19.7621 23.9433 19.4942 23.4052 19.2277C22.7074 18.883 22.0323 18.4888 21.2718 18.2867C20.9444 18.1997 20.6711 18.2765 20.4635 18.5453C20.0547 19.075 19.6514 19.6086 19.2457 20.1406C19.0131 20.4462 18.6865 20.6727 18.3238 20.6006C17.5375 20.4446 16.8303 20.0474 16.1497 19.6446C15.549 19.2896 14.9929 18.8555 14.4635 18.3862C13.3169 17.3707 12.3645 16.2055 11.5962 14.8836C11.4215 14.5827 11.4936 14.3234 11.6878 14.0899C11.9988 13.7169 12.3395 13.369 12.6543 12.9991C12.9715 12.6269 13.2104 12.2226 12.9958 11.7062C12.4663 10.4321 11.9408 9.15647 11.4004 7.8863C11.2947 7.63712 11.1153 7.46474 10.8091 7.40362C10.5585 7.35347 10.3157 7.39108 10.0737 7.36287L10.0729 7.36366Z" fill="#4CAF50"/>
</svg>
